<svg version="1.1" preserveAspectRatio="none" xmlns="http://www.w3.org/2000/svg" width="500" height="500" viewBox="0 0 500 500"><rect width="100%" height="100%" fill="#1E1F22" fill-opacity="1"/><svg viewBox="61.7594 476.1 494.4228 137" width="333" height="92.2712302102573" x="83.5px" y="203.8644px" xmlns="http://www.w3.org/2000/svg" xmlns:xlink="http://www.w3.org/1999/xlink" preserveAspectRatio="none"><defs></defs><style>.companyName {fill:#EBE7D9;fill-opacity:1;}.icon3 {fill:#F55139;fill-opacity:1;}.icon3-str {stroke:#F55139;stroke-opacity:1;}</style><g opacity="1" transform="rotate(0 61.7594 586.1)">
<svg width="246.3247" height="27" x="61.7594" y="586.1" version="1.1" preserveAspectRatio="none" viewBox="4.2 -30.28 278.44000000000005 30.520000000000003">
  <g transform="matrix(1 0 0 1 0 0)" class="icon3"><path id="id-6izo4zJp16" d="M4.20 0L4.20-28L8.20-28L8.20 0L4.20 0Z M27.96-4L29.16-1.24Q28.32-0.52 27.08-0.14Q25.84 0.24 24.52 0.24L24.52 0.24Q21.32 0.24 19.56-1.48Q17.80-3.20 17.80-6.40L17.80-6.40L17.80-18.04L14.20-18.04L14.20-21.20L17.80-21.20L17.80-25.84L21.64-25.84L21.64-21.20L27.72-21.20L27.72-18.04L21.64-18.04L21.64-6.56Q21.64-4.84 22.50-3.92Q23.36-3 24.96-3L24.96-3Q26.72-3 27.96-4L27.96-4Z M46.96 0L46.96-21.20L50.80-21.20L50.80 0L46.96 0ZM48.88-25.28Q47.76-25.28 47.02-26Q46.28-26.72 46.28-27.76L46.28-27.76Q46.28-28.80 47.02-29.54Q47.76-30.28 48.88-30.28L48.88-30.28Q50-30.28 50.74-29.58Q51.48-28.88 51.48-27.84L51.48-27.84Q51.48-26.76 50.74-26.02Q50-25.28 48.88-25.28L48.88-25.28Z M65.40 0.24Q62.80 0.24 60.40-0.46Q58.00-1.16 56.64-2.24L56.64-2.24L58.24-5.28Q59.64-4.28 61.64-3.68Q63.64-3.08 65.68-3.08L65.68-3.08Q70.72-3.08 70.72-5.96L70.72-5.96Q70.72-6.92 70.04-7.48Q69.36-8.04 68.34-8.30Q67.32-8.56 65.44-8.88L65.44-8.88Q62.88-9.28 61.26-9.80Q59.64-10.32 58.48-11.56Q57.32-12.80 57.32-15.04L57.32-15.04Q57.32-17.92 59.72-19.66Q62.12-21.40 66.16-21.40L66.16-21.40Q68.28-21.40 70.40-20.88Q72.52-20.36 73.88-19.48L73.88-19.48L72.24-16.44Q69.64-18.12 66.12-18.12L66.12-18.12Q63.68-18.12 62.40-17.32Q61.12-16.52 61.12-15.20L61.12-15.20Q61.12-14.16 61.84-13.56Q62.56-12.96 63.62-12.68Q64.68-12.40 66.60-12.04L66.60-12.04Q69.16-11.60 70.74-11.10Q72.32-10.60 73.44-9.40Q74.56-8.20 74.56-6.04L74.56-6.04Q74.56-3.16 72.10-1.46Q69.64 0.24 65.40 0.24L65.40 0.24Z M121.16-21.20L124.60-21.20L116.68 0L113.00 0L106.88-16.08L100.68 0L97.00 0L89.12-21.20L92.76-21.20L98.92-4.32L105.32-21.20L108.56-21.20L114.84-4.24L121.16-21.20Z M141-21.40Q145.04-21.40 147.42-19.06Q149.80-16.72 149.80-12.20L149.80-12.20L149.80 0L145.96 0L145.96-11.76Q145.96-14.84 144.48-16.40Q143-17.96 140.24-17.96L140.24-17.96Q137.12-17.96 135.32-16.14Q133.52-14.32 133.52-10.92L133.52-10.92L133.52 0L129.68 0L129.68-29.68L133.52-29.68L133.52-18.20Q134.72-19.72 136.66-20.56Q138.60-21.40 141-21.40L141-21.40Z M165.84-21.40Q170.24-21.40 172.58-19.24Q174.92-17.08 174.92-12.80L174.92-12.80L174.92 0L171.28 0L171.28-2.80Q170.32-1.32 168.54-0.54Q166.76 0.24 164.32 0.24L164.32 0.24Q160.76 0.24 158.62-1.48Q156.48-3.20 156.48-6L156.48-6Q156.48-8.80 158.52-10.50Q160.56-12.20 165-12.20L165-12.20L171.08-12.20L171.08-12.96Q171.08-15.44 169.64-16.76Q168.20-18.08 165.40-18.08L165.40-18.08Q163.52-18.08 161.72-17.46Q159.92-16.84 158.68-15.80L158.68-15.80L157.08-18.68Q158.72-20 161-20.70Q163.28-21.40 165.84-21.40L165.84-21.40ZM164.96-2.72Q167.16-2.72 168.76-3.70Q170.36-4.68 171.08-6.48L171.08-6.48L171.08-9.44L165.16-9.44Q160.28-9.44 160.28-6.16L160.28-6.16Q160.28-4.56 161.52-3.64Q162.76-2.72 164.96-2.72L164.96-2.72Z M193.96-4L195.16-1.24Q194.32-0.52 193.08-0.14Q191.84 0.24 190.52 0.24L190.52 0.24Q187.32 0.24 185.56-1.48Q183.80-3.20 183.80-6.40L183.80-6.40L183.80-18.04L180.20-18.04L180.20-21.20L183.80-21.20L183.80-25.84L187.64-25.84L187.64-21.20L193.72-21.20L193.72-18.04L187.64-18.04L187.64-6.56Q187.64-4.84 188.50-3.92Q189.36-3 190.96-3L190.96-3Q192.72-3 193.96-4L193.96-4Z M212.96 0L212.96-21.20L216.80-21.20L216.80 0L212.96 0ZM214.88-25.28Q213.76-25.28 213.02-26Q212.28-26.72 212.28-27.76L212.28-27.76Q212.28-28.80 213.02-29.54Q213.76-30.28 214.88-30.28L214.88-30.28Q216.00-30.28 216.74-29.58Q217.48-28.88 217.48-27.84L217.48-27.84Q217.48-26.76 216.74-26.02Q216.00-25.28 214.88-25.28L214.88-25.28Z M236.04-4L237.24-1.24Q236.40-0.52 235.16-0.14Q233.92 0.24 232.60 0.24L232.60 0.24Q229.40 0.24 227.64-1.48Q225.88-3.20 225.88-6.40L225.88-6.40L225.88-18.04L222.28-18.04L222.28-21.20L225.88-21.20L225.88-25.84L229.72-25.84L229.72-21.20L235.80-21.20L235.80-18.04L229.72-18.04L229.72-6.56Q229.72-4.84 230.58-3.92Q231.44-3 233.04-3L233.04-3Q234.80-3 236.04-4L236.04-4Z M255.04 0L255.04-21.20L258.88-21.20L258.88 0L255.04 0ZM256.96-25.28Q255.84-25.28 255.10-26Q254.36-26.72 254.36-27.76L254.36-27.76Q254.36-28.80 255.10-29.54Q255.84-30.28 256.96-30.28L256.96-30.28Q258.08-30.28 258.82-29.58Q259.56-28.88 259.56-27.84L259.56-27.84Q259.56-26.76 258.82-26.02Q258.08-25.28 256.96-25.28L256.96-25.28Z M273.48 0.24Q270.88 0.24 268.48-0.46Q266.08-1.16 264.72-2.24L264.72-2.24L266.32-5.28Q267.72-4.28 269.72-3.68Q271.72-3.08 273.76-3.08L273.76-3.08Q278.80-3.08 278.80-5.96L278.80-5.96Q278.80-6.92 278.12-7.48Q277.44-8.04 276.42-8.30Q275.40-8.56 273.52-8.88L273.52-8.88Q270.96-9.28 269.34-9.80Q267.72-10.32 266.56-11.56Q265.40-12.80 265.40-15.04L265.40-15.04Q265.40-17.92 267.80-19.66Q270.20-21.40 274.24-21.40L274.24-21.40Q276.36-21.40 278.48-20.88Q280.60-20.36 281.96-19.48L281.96-19.48L280.32-16.44Q277.72-18.12 274.20-18.12L274.20-18.12Q271.76-18.12 270.48-17.32Q269.20-16.52 269.20-15.20L269.20-15.20Q269.20-14.16 269.92-13.56Q270.64-12.96 271.70-12.68Q272.76-12.40 274.68-12.04L274.68-12.04Q277.24-11.60 278.82-11.10Q280.40-10.60 281.52-9.40Q282.64-8.20 282.64-6.04L282.64-6.04Q282.64-3.16 280.18-1.46Q277.72 0.24 273.48 0.24L273.48 0.24Z"/></g>
</svg>
</g><g opacity="1" transform="rotate(0 174.3037 476.1)">
<svg width="381.8785" height="90" x="174.3037" y="476.1" version="1.1" preserveAspectRatio="none" viewBox="2.04 -28.48 122.88 28.96">
  <g transform="matrix(1 0 0 1 0 0)" class="companyName"><path id="id-D6z1nYkh5" d="M21.36-6.04L23-14.44L28.92-14.44L26.60-2.92Q24.48-1.28 21.68-0.40Q18.88 0.48 15.88 0.48L15.88 0.48Q11.68 0.48 8.56-1.04Q5.44-2.56 3.74-5.32Q2.04-8.08 2.04-11.68L2.04-11.68Q2.04-16.44 4.24-20.28Q6.44-24.12 10.44-26.30Q14.44-28.48 19.64-28.48L19.64-28.48Q23.64-28.48 26.58-27.24Q29.52-26 31.32-23.60L31.32-23.60L26.68-19.84Q25.28-21.48 23.52-22.22Q21.76-22.96 19.36-22.96L19.36-22.96Q16.16-22.96 13.72-21.54Q11.28-20.12 9.94-17.64Q8.60-15.16 8.60-12.08L8.60-12.08Q8.60-8.84 10.70-6.94Q12.80-5.04 16.72-5.04L16.72-5.04Q19.20-5.04 21.36-6.04L21.36-6.04Z M57.68-22.80L43-22.80L41.80-16.72L54.80-16.72L53.80-11.68L40.76-11.68L39.48-5.20L54.76-5.20L53.68 0L32 0L37.60-28L58.76-28L57.68-22.80Z M83.72-28L90.12-28L84.52 0L79.20 0L68.76-17.52L65.24 0L58.84 0L64.44-28L69.80-28L80.24-10.44L83.72-28Z M97.16 0.48Q93.96 0.48 91.64-0.60Q89.32-1.68 88.04-3.72L88.04-3.72L92.32-7.80Q94.16-4.84 97.24-4.84L97.24-4.84Q101-4.84 101.88-9.20L101.88-9.20L104.56-22.80L94.76-22.80L95.80-28L112.04-28L108.32-9.52Q107.28-4.16 104.56-1.84Q101.84 0.48 97.16 0.48L97.16 0.48Z M112.80 0L118.40-28L124.92-28L119.32 0L112.80 0Z"/></g>
</svg>
</g><g opacity="1" transform="rotate(0 61.7594 476.1)">
<svg width="112.5443" height="90" x="61.7594" y="476.1" version="1.1" preserveAspectRatio="none" viewBox="-4.6 -33.68 47.12 37.68">
  <g transform="matrix(1 0 0 1 0 0)" class="icon3"><path id="id-hTdFi603-2" d="M-4.60 4L15.88-33.68L24.12-33.68L3.64 4L-4.60 4Z M13.80 4L34.28-33.68L42.52-33.68L22.04 4L13.80 4Z"/></g>
</svg>
</g></svg></svg>